<?xml version="1.0" standalone="no"?>
<!DOCTYPE svg PUBLIC "-//W3C//DTD SVG 20010904//EN"
 "http://www.w3.org/TR/2001/REC-SVG-20010904/DTD/svg10.dtd">
<svg version="1.0" xmlns="http://www.w3.org/2000/svg"
 width="144.000000pt" height="144.000000pt" viewBox="0 0 144.000000 144.000000"
 preserveAspectRatio="xMidYMid meet">
<metadata>
Created by potrace 1.15, written by Peter Selinger 2001-2017
</metadata>
<g transform="translate(0.000000,144.000000) scale(0.100000,-0.100000)"
fill="#ffeb97" stroke="red">
<path d="M367 1353 c-5 -9 9 -152 22 -227 8 -49 30 -76 60 -76 22 0 82 37 103
63 35 44 24 68 -72 161 -86 83 -103 95 -113 79z"/>
<path d="M1042 1262 c-163 -93 -180 -121 -116 -185 45 -45 96 -58 124 -32 19
17 90 216 90 250 0 22 -7 20 -98 -33z"/>
<path d="M608 1237 c-44 -12 -46 -17 -18 -42 42 -38 17 -89 -69 -144 -82 -53
-160 -44 -146 17 11 46 -31 12 -74 -61 -45 -75 -83 -213 -49 -179 7 7 22 12
33 12 48 0 79 -77 73 -181 -5 -85 -22 -109 -67 -92 -26 9 -29 9 -24 -6 10 -27
69 -114 98 -144 31 -32 45 -24 45 26 0 66 114 46 197 -35 51 -50 58 -88 18
-106 -62 -29 2 -48 129 -39 84 6 156 24 156 39 0 5 -11 13 -25 18 -33 13 -39
31 -25 74 13 39 99 123 135 132 49 12 69 1 76 -39 10 -64 24 -66 62 -5 34 52
67 121 67 139 0 13 -37 11 -59 -3 -43 -27 -77 53 -68 158 10 109 43 145 95
104 l27 -22 3 21 c3 21 -45 128 -77 170 -21 27 -41 21 -41 -13 0 -54 -50 -60
-128 -16 -54 32 -112 99 -112 131 0 12 13 24 37 34 45 19 36 31 -38 50 -61 17
-176 18 -231 2z m170 -185 c23 -19 45 -45 48 -58 20 -78 -126 -124 -193 -61
-38 34 -30 68 29 120 29 25 57 43 62 40 6 -4 30 -22 54 -41z m154 -279 c8 -10
20 -47 27 -83 12 -58 11 -65 -5 -77 -10 -7 -23 -13 -29 -13 -7 0 -26 -7 -43
-16 -97 -48 -136 78 -53 167 42 43 78 51 103 22z m-313 -27 c27 -27 35 -45 39
-84 6 -70 -9 -95 -56 -89 -37 5 -106 28 -118 39 -12 13 17 148 34 158 33 19
67 11 101 -24z"/>
<path d="M670 1028 l-41 -52 21 -20 c29 -29 101 -29 131 0 14 15 18 26 13 37
-12 19 -72 87 -78 87 -2 0 -23 -23 -46 -52z"/>
<path d="M864 742 c-12 -10 -26 -27 -33 -39 -13 -25 -15 -89 -3 -97 10 -6 104
14 116 25 6 5 2 32 -9 69 -20 65 -34 73 -71 42z"/>
<path d="M520 704 c-31 -72 -28 -81 35 -99 30 -9 59 -14 65 -10 16 10 12 78
-7 105 -43 63 -68 64 -93 4z"/>
<path d="M1121 834 c-29 -37 -30 -131 -1 -162 12 -12 31 -22 43 -22 38 0 237
62 237 74 0 6 -9 17 -21 24 -40 25 -216 112 -227 112 -6 0 -20 -12 -31 -26z"/>
<path d="M245 800 c-207 -81 -246 -105 -197 -125 87 -35 208 -75 227 -75 39 0
59 40 52 106 -8 74 -39 110 -82 94z"/>
<path d="M962 470 c-34 -21 -72 -74 -72 -101 0 -22 43 -59 135 -118 82 -52
105 -61 105 -38 0 24 -64 232 -78 255 -18 27 -47 28 -90 2z"/>
<path d="M442 433 c-10 -10 -27 -45 -36 -78 -10 -33 -21 -70 -26 -81 -13 -32
-23 -114 -15 -114 13 0 96 51 168 103 57 41 67 53 67 78 0 35 -34 74 -85 95
-44 18 -49 18 -73 -3z"/>
</g>
</svg>
